<?xml version="1.0" encoding="UTF-8" standalone="no"?>
<!DOCTYPE svg PUBLIC "-//W3C//DTD SVG 1.1//EN"
 "http://www.w3.org/Graphics/SVG/1.1/DTD/svg11.dtd">
<!-- Generated by graphviz version 8.1.0 (20230707.0739)
 -->
<!-- Title: G Pages: 1 -->
<svg width="778pt" height="432pt"
 viewBox="0.00 0.00 777.60 431.76" xmlns="http://www.w3.org/2000/svg" xmlns:xlink="http://www.w3.org/1999/xlink">
<g id="graph0" class="graph" transform="scale(1 1) rotate(0) translate(4 427.76)">
<title>G</title><style>.edge>path:hover{stroke-width:8}</style>
<polygon fill="white" stroke="none" points="-4,4 -4,-427.76 773.6,-427.76 773.6,4 -4,4"/>
<!-- PIL -->
<g id="node1" class="node">
<title>PIL</title><style>.edge>path:hover{stroke-width:8}</style>
<ellipse fill="#d92626" stroke="black" cx="27" cy="-333.76" rx="27" ry="18"/>
<text text-anchor="middle" x="27" y="-330.26" font-family="Helvetica,sans-Serif" font-size="10.00" fill="#ffffff">PIL</text>
</g>
<!-- src_cc1_level_imager -->
<g id="node11" class="node">
<title>src_cc1_level_imager</title><style>.edge>path:hover{stroke-width:8}</style>
<ellipse fill="#7546a4" stroke="black" cx="194" cy="-175.88" rx="63.82" ry="22.63"/>
<text text-anchor="middle" x="194" y="-178.38" font-family="Helvetica,sans-Serif" font-size="10.00" fill="#ffffff">src.</text>
<text text-anchor="middle" x="194" y="-166.38" font-family="Helvetica,sans-Serif" font-size="10.00" fill="#ffffff">cc1_level_imager</text>
</g>
<!-- PIL&#45;&gt;src_cc1_level_imager -->
<g id="edge1" class="edge">
<title>PIL&#45;&gt;src_cc1_level_imager</title><style>.edge>path:hover{stroke-width:8}</style>
<path fill="none" stroke="black" d="M48.66,-322.42C53.37,-320.2 58.35,-317.89 63,-315.76 120.87,-289.38 168.91,-316.58 194,-258.14"/>
<path fill="none" stroke="black" d="M194,-256.14C200.23,-241.63 200.87,-224.2 199.69,-209.39"/>
<polygon fill="#d92626" stroke="black" points="203.08,-209.21 198.49,-199.66 196.12,-209.99 203.08,-209.21"/>
</g>
<!-- PIL_Image -->
<g id="node2" class="node">
<title>PIL_Image</title><style>.edge>path:hover{stroke-width:8}</style>
<ellipse fill="#c04040" stroke="black" cx="157" cy="-405.76" rx="35.78" ry="18"/>
<text text-anchor="middle" x="157" y="-402.26" font-family="Helvetica,sans-Serif" font-size="10.00" fill="#ffffff">PIL.Image</text>
</g>
<!-- PIL_ImageOps -->
<g id="node3" class="node">
<title>PIL_ImageOps</title><style>.edge>path:hover{stroke-width:8}</style>
<ellipse fill="#ac4949" stroke="black" cx="119" cy="-333.76" rx="46.6" ry="18"/>
<text text-anchor="middle" x="119" y="-330.26" font-family="Helvetica,sans-Serif" font-size="10.00" fill="#ffffff">PIL.ImageOps</text>
</g>
<!-- PIL_Image&#45;&gt;PIL_ImageOps -->
<g id="edge2" class="edge">
<title>PIL_Image&#45;&gt;PIL_ImageOps</title><style>.edge>path:hover{stroke-width:8}</style>
<path fill="none" stroke="black" d="M147.99,-388.18C143.61,-380.1 138.23,-370.2 133.31,-361.12"/>
<polygon fill="#c04040" stroke="black" points="136.05,-359.84 128.2,-352.72 129.9,-363.18 136.05,-359.84"/>
</g>
<!-- PIL_Image&#45;&gt;src_cc1_level_imager -->
<g id="edge3" class="edge">
<title>PIL_Image&#45;&gt;src_cc1_level_imager</title><style>.edge>path:hover{stroke-width:8}</style>
<path fill="none" stroke="black" d="M163.4,-387.75C167.12,-377.44 171.71,-363.96 175,-351.76 186.07,-310.77 177.25,-297.15 194,-258.14"/>
</g>
<!-- PIL_ImageOps&#45;&gt;src_cc1_level_imager -->
<g id="edge4" class="edge">
<title>PIL_ImageOps&#45;&gt;src_cc1_level_imager</title><style>.edge>path:hover{stroke-width:8}</style>
<path fill="none" stroke="black" d="M141.7,-317.73C159.57,-304.44 183.2,-283.29 194,-258.14"/>
</g>
<!-- bs4 -->
<g id="node4" class="node">
<title>bs4</title><style>.edge>path:hover{stroke-width:8}</style>
<ellipse fill="#85b653" stroke="black" cx="344" cy="-257.14" rx="27" ry="18"/>
<text text-anchor="middle" x="344" y="-253.64" font-family="Helvetica,sans-Serif" font-size="10.00" fill="#000000">bs4</text>
</g>
<!-- src_dat_handler -->
<g id="node15" class="node">
<title>src_dat_handler</title><style>.edge>path:hover{stroke-width:8}</style>
<ellipse fill="#6b35a1" stroke="black" cx="480" cy="-94.63" rx="46.85" ry="22.63"/>
<text text-anchor="middle" x="480" y="-97.13" font-family="Helvetica,sans-Serif" font-size="10.00" fill="#ffffff">src.</text>
<text text-anchor="middle" x="480" y="-85.13" font-family="Helvetica,sans-Serif" font-size="10.00" fill="#ffffff">dat_handler</text>
</g>
<!-- bs4&#45;&gt;src_dat_handler -->
<g id="edge5" class="edge">
<title>bs4&#45;&gt;src_dat_handler</title><style>.edge>path:hover{stroke-width:8}</style>
<path fill="none" stroke="black" d="M432,-174.88C437.49,-157.1 447.82,-139.21 457.49,-124.94"/>
<polygon fill="#85b653" stroke="black" points="460.8,-127.31 463.7,-117.12 455.08,-123.28 460.8,-127.31"/>
<path fill="none" stroke="black" d="M362.03,-243.42C386.16,-225.85 426.6,-194.37 432,-176.88"/>
</g>
<!-- requests -->
<g id="node5" class="node">
<title>requests</title><style>.edge>path:hover{stroke-width:8}</style>
<ellipse fill="#40bfc0" stroke="black" cx="421" cy="-257.14" rx="32.17" ry="18"/>
<text text-anchor="middle" x="421" y="-253.64" font-family="Helvetica,sans-Serif" font-size="10.00" fill="#000000">requests</text>
</g>
<!-- requests&#45;&gt;src_dat_handler -->
<g id="edge6" class="edge">
<title>requests&#45;&gt;src_dat_handler</title><style>.edge>path:hover{stroke-width:8}</style>
<path fill="none" stroke="black" d="M421.8,-238.78C422.92,-222.49 425.6,-197.59 432,-176.88"/>
</g>
<!-- src -->
<g id="node6" class="node">
<title>src</title><style>.edge>path:hover{stroke-width:8}</style>
<ellipse fill="#5c2e8a" stroke="black" cx="480" cy="-18" rx="27" ry="18"/>
<text text-anchor="middle" x="480" y="-14.5" font-family="Helvetica,sans-Serif" font-size="10.00" fill="#ffffff">src</text>
</g>
<!-- src_c2m_handler -->
<g id="node7" class="node">
<title>src_c2m_handler</title><style>.edge>path:hover{stroke-width:8}</style>
<ellipse fill="#7f40c0" stroke="black" cx="365" cy="-94.63" rx="50.56" ry="22.63"/>
<text text-anchor="middle" x="365" y="-97.13" font-family="Helvetica,sans-Serif" font-size="10.00" fill="#ffffff">src.</text>
<text text-anchor="middle" x="365" y="-85.13" font-family="Helvetica,sans-Serif" font-size="10.00" fill="#ffffff">c2m_handler</text>
</g>
<!-- src_c2m_handler&#45;&gt;src -->
<g id="edge7" class="edge">
<title>src_c2m_handler&#45;&gt;src</title><style>.edge>path:hover{stroke-width:8}</style>
<path fill="none" stroke="black" d="M393.13,-75.37C411.14,-63.69 434.4,-48.59 452.32,-36.96"/>
<polygon fill="#7f40c0" stroke="black" points="453.66,-39.62 460.14,-31.24 449.85,-33.74 453.66,-39.62"/>
</g>
<!-- src_cc1 -->
<g id="node8" class="node">
<title>src_cc1</title><style>.edge>path:hover{stroke-width:8}</style>
<ellipse fill="#8522e7" stroke="black" cx="586" cy="-405.76" rx="29.01" ry="18"/>
<text text-anchor="middle" x="586" y="-402.26" font-family="Helvetica,sans-Serif" font-size="10.00" fill="#ffffff">src.cc1</text>
</g>
<!-- src_cc1&#45;&gt;src -->
<g id="edge8" class="edge">
<title>src_cc1&#45;&gt;src</title><style>.edge>path:hover{stroke-width:8}</style>
<path fill="none" stroke="black" d="M556.71,-403.98C483.13,-401.21 295.68,-388.86 286,-334.76"/>
<path fill="none" stroke="black" d="M286,-332.76C275.76,-275.57 268.71,-117.37 305,-72 337.72,-31.1 400.95,-20.91 441.78,-18.83"/>
<polygon fill="#8522e7" stroke="black" points="441.79,-22.29 451.65,-18.44 441.54,-15.3 441.79,-22.29"/>
</g>
<!-- src_cc1_cell -->
<g id="node9" class="node">
<title>src_cc1_cell</title><style>.edge>path:hover{stroke-width:8}</style>
<ellipse fill="#7f26d9" stroke="black" cx="586" cy="-333.76" rx="41.19" ry="18"/>
<text text-anchor="middle" x="586" y="-330.26" font-family="Helvetica,sans-Serif" font-size="10.00" fill="#ffffff">src.cc1_cell</text>
</g>
<!-- src_cc1&#45;&gt;src_cc1_cell -->
<g id="edge9" class="edge">
<title>src_cc1&#45;&gt;src_cc1_cell</title><style>.edge>path:hover{stroke-width:8}</style>
<path fill="none" stroke="black" d="M586,-387.46C586,-380 586,-371.09 586,-362.73"/>
<polygon fill="#8522e7" stroke="black" points="589.5,-362.87 586,-352.87 582.5,-362.87 589.5,-362.87"/>
</g>
<!-- src_cc1_level -->
<g id="node10" class="node">
<title>src_cc1_level</title><style>.edge>path:hover{stroke-width:8}</style>
<ellipse fill="#7523c8" stroke="black" cx="515" cy="-257.14" rx="43.45" ry="18"/>
<text text-anchor="middle" x="515" y="-253.64" font-family="Helvetica,sans-Serif" font-size="10.00" fill="#ffffff">src.cc1_level</text>
</g>
<!-- src_cc1&#45;&gt;src_cc1_level -->
<g id="edge10" class="edge">
<title>src_cc1&#45;&gt;src_cc1_level</title><style>.edge>path:hover{stroke-width:8}</style>
<path fill="none" stroke="black" d="M286,-332.76C271.61,-252.35 384.98,-307.01 462,-279.76 466.44,-278.19 471.06,-276.46 475.63,-274.69"/>
<polygon fill="#8522e7" stroke="black" points="476.48,-277.71 484.48,-270.76 473.89,-271.21 476.48,-277.71"/>
</g>
<!-- src_cc1_level_transformer -->
<g id="node12" class="node">
<title>src_cc1_level_transformer</title><style>.edge>path:hover{stroke-width:8}</style>
<ellipse fill="#7a3db8" stroke="black" cx="692" cy="-257.14" rx="77.6" ry="22.63"/>
<text text-anchor="middle" x="692" y="-259.64" font-family="Helvetica,sans-Serif" font-size="10.00" fill="#ffffff">src.</text>
<text text-anchor="middle" x="692" y="-247.64" font-family="Helvetica,sans-Serif" font-size="10.00" fill="#ffffff">cc1_level_transformer</text>
</g>
<!-- src_cc1&#45;&gt;src_cc1_level_transformer -->
<g id="edge11" class="edge">
<title>src_cc1&#45;&gt;src_cc1_level_transformer</title><style>.edge>path:hover{stroke-width:8}</style>
<path fill="none" stroke="black" d="M601.36,-390.24C611.76,-380 625.47,-365.69 636,-351.76 650.92,-332.05 665.18,-308.09 675.58,-289.35"/>
<polygon fill="#8522e7" stroke="black" points="679.07,-291.26 680.79,-280.8 672.93,-287.9 679.07,-291.26"/>
</g>
<!-- src_cc1_cell&#45;&gt;src -->
<g id="edge12" class="edge">
<title>src_cc1_cell&#45;&gt;src</title><style>.edge>path:hover{stroke-width:8}</style>
<path fill="none" stroke="black" d="M586.8,-315.44C587.96,-286.63 589.59,-227.09 586,-176.88"/>
</g>
<!-- src_cc1_cell&#45;&gt;src_cc1_level -->
<g id="edge13" class="edge">
<title>src_cc1_cell&#45;&gt;src_cc1_level</title><style>.edge>path:hover{stroke-width:8}</style>
<path fill="none" stroke="black" d="M570.94,-316.94C561.31,-306.82 548.64,-293.49 537.79,-282.09"/>
<polygon fill="#7f26d9" stroke="black" points="540.71,-280.03 531.28,-275.2 535.64,-284.86 540.71,-280.03"/>
</g>
<!-- src_cc1_cell&#45;&gt;src_cc1_level_transformer -->
<g id="edge14" class="edge">
<title>src_cc1_cell&#45;&gt;src_cc1_level_transformer</title><style>.edge>path:hover{stroke-width:8}</style>
<path fill="none" stroke="black" d="M607.2,-317.84C620.76,-308.3 638.72,-295.65 654.63,-284.45"/>
<polygon fill="#7f26d9" stroke="black" points="656.05,-287.02 662.21,-278.41 652.02,-281.3 656.05,-287.02"/>
</g>
<!-- src_cc1_level&#45;&gt;src -->
<g id="edge15" class="edge">
<title>src_cc1_level&#45;&gt;src</title><style>.edge>path:hover{stroke-width:8}</style>
<path fill="none" stroke="black" d="M586,-174.88C583.49,-139.75 594.76,-129.75 586,-95.63"/>
<path fill="none" stroke="black" d="M540.39,-242.2C561.58,-228.47 588.04,-205.44 586,-176.88"/>
</g>
<!-- src_cc1_levelset -->
<g id="node13" class="node">
<title>src_cc1_levelset</title><style>.edge>path:hover{stroke-width:8}</style>
<ellipse fill="#7f33cc" stroke="black" cx="509" cy="-175.88" rx="48.97" ry="22.63"/>
<text text-anchor="middle" x="509" y="-178.38" font-family="Helvetica,sans-Serif" font-size="10.00" fill="#ffffff">src.</text>
<text text-anchor="middle" x="509" y="-166.38" font-family="Helvetica,sans-Serif" font-size="10.00" fill="#ffffff">cc1_levelset</text>
</g>
<!-- src_cc1_level&#45;&gt;src_cc1_levelset -->
<g id="edge16" class="edge">
<title>src_cc1_level&#45;&gt;src_cc1_levelset</title><style>.edge>path:hover{stroke-width:8}</style>
<path fill="none" stroke="black" d="M513.7,-238.94C513.05,-230.41 512.25,-219.8 511.49,-209.79"/>
<polygon fill="#7523c8" stroke="black" points="514.91,-209.58 510.66,-199.88 507.93,-210.11 514.91,-209.58"/>
</g>
<!-- src_cc1_level&#45;&gt;src_dat_handler -->
<g id="edge17" class="edge">
<title>src_cc1_level&#45;&gt;src_dat_handler</title><style>.edge>path:hover{stroke-width:8}</style>
<path fill="none" stroke="black" d="M484.77,-243.91C457.37,-230.69 422.59,-207.34 432,-176.88"/>
</g>
<!-- src_cc1_level_transformer&#45;&gt;src -->
<g id="edge18" class="edge">
<title>src_cc1_level_transformer&#45;&gt;src</title><style>.edge>path:hover{stroke-width:8}</style>
<path fill="none" stroke="black" d="M642.4,-239.38C615.85,-226.96 588.14,-206.91 586,-176.88"/>
</g>
<!-- src_cc1_levelset&#45;&gt;src -->
<g id="edge19" class="edge">
<title>src_cc1_levelset&#45;&gt;src</title><style>.edge>path:hover{stroke-width:8}</style>
<path fill="none" stroke="black" d="M542.32,-159.15C566.22,-145.32 593.06,-123.13 586,-95.63"/>
<path fill="none" stroke="black" d="M586,-93.63C577.57,-60.77 542.31,-40.73 514.75,-29.81"/>
<polygon fill="#7f33cc" stroke="black" points="516.22,-26.25 505.63,-26.06 513.79,-32.82 516.22,-26.25"/>
</g>
<!-- src_cc1_levelset&#45;&gt;src_dat_handler -->
<g id="edge20" class="edge">
<title>src_cc1_levelset&#45;&gt;src_dat_handler</title><style>.edge>path:hover{stroke-width:8}</style>
<path fill="none" stroke="black" d="M501.08,-153.23C498.17,-145.28 494.81,-136.1 491.64,-127.44"/>
<polygon fill="#7f33cc" stroke="black" points="494.64,-126.45 487.91,-118.26 488.06,-128.85 494.64,-126.45"/>
</g>
<!-- src_cc_binary -->
<g id="node14" class="node">
<title>src_cc_binary</title><style>.edge>path:hover{stroke-width:8}</style>
<ellipse fill="#853bce" stroke="black" cx="359" cy="-175.88" rx="44.8" ry="18"/>
<text text-anchor="middle" x="359" y="-172.38" font-family="Helvetica,sans-Serif" font-size="10.00" fill="#ffffff">src.cc_binary</text>
</g>
<!-- src_cc_binary&#45;&gt;src_c2m_handler -->
<g id="edge21" class="edge">
<title>src_cc_binary&#45;&gt;src_c2m_handler</title><style>.edge>path:hover{stroke-width:8}</style>
<path fill="none" stroke="black" d="M360.3,-157.69C360.95,-149.15 361.75,-138.55 362.51,-128.53"/>
<polygon fill="#853bce" stroke="black" points="366.07,-128.86 363.34,-118.62 359.09,-128.33 366.07,-128.86"/>
</g>
<!-- src_cc_binary&#45;&gt;src_dat_handler -->
<g id="edge22" class="edge">
<title>src_cc_binary&#45;&gt;src_dat_handler</title><style>.edge>path:hover{stroke-width:8}</style>
<path fill="none" stroke="black" d="M381.76,-159.98C399.33,-148.47 423.98,-132.32 444.19,-119.09"/>
<polygon fill="#853bce" stroke="black" points="445.67,-121.64 452.12,-113.24 441.83,-115.79 445.67,-121.64"/>
</g>
<!-- src_dat_handler&#45;&gt;src -->
<g id="edge23" class="edge">
<title>src_dat_handler&#45;&gt;src</title><style>.edge>path:hover{stroke-width:8}</style>
<path fill="none" stroke="black" d="M480,-71.64C480,-63.93 480,-55.15 480,-47.01"/>
<polygon fill="#6b35a1" stroke="black" points="483.5,-47.1 480,-37.1 476.5,-47.1 483.5,-47.1"/>
</g>
<!-- src_tws_handler -->
<g id="node16" class="node">
<title>src_tws_handler</title><style>.edge>path:hover{stroke-width:8}</style>
<ellipse fill="#8547c2" stroke="black" cx="662" cy="-94.63" rx="47.91" ry="22.63"/>
<text text-anchor="middle" x="662" y="-97.13" font-family="Helvetica,sans-Serif" font-size="10.00" fill="#ffffff">src.</text>
<text text-anchor="middle" x="662" y="-85.13" font-family="Helvetica,sans-Serif" font-size="10.00" fill="#ffffff">tws_handler</text>
</g>
<!-- src_tws_handler&#45;&gt;src -->
<g id="edge24" class="edge">
<title>src_tws_handler&#45;&gt;src</title><style>.edge>path:hover{stroke-width:8}</style>
<path fill="none" stroke="black" d="M626.48,-79.06C593.43,-65.51 544.61,-45.49 512.55,-32.35"/>
<polygon fill="#8547c2" stroke="black" points="514.36,-28.89 503.78,-28.34 511.7,-35.37 514.36,-28.89"/>
</g>
</g>
</svg>
