<?xml version="1.0" encoding="UTF-8" standalone="no"?>
<!DOCTYPE svg PUBLIC "-//W3C//DTD SVG 1.1//EN"
 "http://www.w3.org/Graphics/SVG/1.1/DTD/svg11.dtd">
<!-- Generated by graphviz version 8.1.0 (20230707.0739)
 -->
<!-- Title: G Pages: 1 -->
<svg width="599pt" height="351pt"
 viewBox="0.00 0.00 598.75 350.51" xmlns="http://www.w3.org/2000/svg" xmlns:xlink="http://www.w3.org/1999/xlink">
<g id="graph0" class="graph" transform="scale(1 1) rotate(0) translate(4 346.51)">
<title>G</title><style>.edge>path:hover{stroke-width:8}</style>
<polygon fill="white" stroke="none" points="-4,4 -4,-346.51 594.75,-346.51 594.75,4 -4,4"/>
<!-- PIL -->
<g id="node1" class="node">
<title>PIL</title><style>.edge>path:hover{stroke-width:8}</style>
<ellipse fill="#f30c0c" stroke="black" cx="368.19" cy="-252.51" rx="27" ry="18"/>
<text text-anchor="middle" x="368.19" y="-249.01" font-family="Helvetica,sans-Serif" font-size="10.00" fill="#ffffff">PIL</text>
</g>
<!-- src_CC1 -->
<g id="node6" class="node">
<title>src_CC1</title><style>.edge>path:hover{stroke-width:8}</style>
<ellipse fill="#752fbc" stroke="black" cx="193.19" cy="-103.88" rx="30.82" ry="18"/>
<text text-anchor="middle" x="193.19" y="-100.38" font-family="Helvetica,sans-Serif" font-size="10.00" fill="#ffffff">src.CC1</text>
</g>
<!-- PIL&#45;&gt;src_CC1 -->
<g id="edge1" class="edge">
<title>PIL&#45;&gt;src_CC1</title><style>.edge>path:hover{stroke-width:8}</style>
<path fill="none" stroke="black" d="M231.19,-179.51C214.96,-168.81 205.32,-148.93 199.81,-132.38"/>
<polygon fill="#f30c0c" stroke="black" points="202.96,-131.7 196.76,-123.11 196.25,-133.69 202.96,-131.7"/>
</g>
<!-- src_cc1 -->
<g id="node8" class="node">
<title>src_cc1</title><style>.edge>path:hover{stroke-width:8}</style>
<ellipse fill="#753ab0" stroke="black" cx="425.19" cy="-103.88" rx="29.01" ry="18"/>
<text text-anchor="middle" x="425.19" y="-100.38" font-family="Helvetica,sans-Serif" font-size="10.00" fill="#ffffff">src.cc1</text>
</g>
<!-- PIL&#45;&gt;src_cc1 -->
<g id="edge2" class="edge">
<title>PIL&#45;&gt;src_cc1</title><style>.edge>path:hover{stroke-width:8}</style>
<path fill="none" stroke="black" d="M382.01,-236.59C394.06,-223.01 411.4,-202.01 423.19,-181.51"/>
</g>
<!-- src_cc1_level_imager -->
<g id="node11" class="node">
<title>src_cc1_level_imager</title><style>.edge>path:hover{stroke-width:8}</style>
<ellipse fill="#7546a4" stroke="black" cx="80.19" cy="-103.88" rx="63.82" ry="22.63"/>
<text text-anchor="middle" x="80.19" y="-106.38" font-family="Helvetica,sans-Serif" font-size="10.00" fill="#ffffff">src.</text>
<text text-anchor="middle" x="80.19" y="-94.38" font-family="Helvetica,sans-Serif" font-size="10.00" fill="#ffffff">cc1_level_imager</text>
</g>
<!-- PIL&#45;&gt;src_cc1_level_imager -->
<g id="edge3" class="edge">
<title>PIL&#45;&gt;src_cc1_level_imager</title><style>.edge>path:hover{stroke-width:8}</style>
<path fill="none" stroke="black" d="M231.19,-179.51C199.38,-158.55 160.84,-139.6 130.66,-126.04"/>
<polygon fill="#f30c0c" stroke="black" points="132.33,-122.5 121.77,-121.65 129.49,-128.9 132.33,-122.5"/>
<path fill="none" stroke="black" d="M344.49,-243.34C319.85,-234.29 280.7,-218.33 250.19,-198.51 240.69,-192.34 240.65,-187.74 231.19,-181.51"/>
</g>
<!-- PIL_Image -->
<g id="node2" class="node">
<title>PIL_Image</title><style>.edge>path:hover{stroke-width:8}</style>
<ellipse fill="#d92626" stroke="black" cx="165.19" cy="-324.51" rx="35.78" ry="18"/>
<text text-anchor="middle" x="165.19" y="-321.01" font-family="Helvetica,sans-Serif" font-size="10.00" fill="#ffffff">PIL.Image</text>
</g>
<!-- PIL_ImageOps -->
<g id="node3" class="node">
<title>PIL_ImageOps</title><style>.edge>path:hover{stroke-width:8}</style>
<ellipse fill="#c43131" stroke="black" cx="128.19" cy="-252.51" rx="46.6" ry="18"/>
<text text-anchor="middle" x="128.19" y="-249.01" font-family="Helvetica,sans-Serif" font-size="10.00" fill="#ffffff">PIL.ImageOps</text>
</g>
<!-- PIL_Image&#45;&gt;PIL_ImageOps -->
<g id="edge4" class="edge">
<title>PIL_Image&#45;&gt;PIL_ImageOps</title><style>.edge>path:hover{stroke-width:8}</style>
<path fill="none" stroke="black" d="M156.42,-306.92C152.2,-298.93 147.03,-289.15 142.28,-280.15"/>
<polygon fill="#d92626" stroke="black" points="144.92,-278.67 137.15,-271.47 138.73,-281.94 144.92,-278.67"/>
</g>
<!-- PIL_Image&#45;&gt;src_CC1 -->
<g id="edge5" class="edge">
<title>PIL_Image&#45;&gt;src_CC1</title><style>.edge>path:hover{stroke-width:8}</style>
<path fill="none" stroke="black" d="M172.64,-306.68C176.82,-296.44 181.68,-282.97 184.19,-270.51 193.83,-222.79 194.66,-165.86 194.12,-132.7"/>
<polygon fill="#d92626" stroke="black" points="197.6,-132.94 193.88,-123.02 190.6,-133.09 197.6,-132.94"/>
</g>
<!-- PIL_Image&#45;&gt;src_cc1 -->
<g id="edge6" class="edge">
<title>PIL_Image&#45;&gt;src_cc1</title><style>.edge>path:hover{stroke-width:8}</style>
<path fill="none" stroke="black" d="M200.39,-320.33C259.73,-314.24 375.98,-298.95 404.19,-270.51 432.68,-241.8 403.02,-216.57 423.19,-181.51"/>
</g>
<!-- PIL_Image&#45;&gt;src_cc1_level_imager -->
<g id="edge7" class="edge">
<title>PIL_Image&#45;&gt;src_cc1_level_imager</title><style>.edge>path:hover{stroke-width:8}</style>
<path fill="none" stroke="black" d="M134.18,-314.91C112.61,-307.14 85.45,-293.33 72.19,-270.51 48.27,-229.34 58.6,-172.24 68.9,-136.97"/>
<polygon fill="#d92626" stroke="black" points="72.45,-138.36 72.06,-127.77 65.76,-136.28 72.45,-138.36"/>
</g>
<!-- PIL_ImageOps&#45;&gt;src_CC1 -->
<g id="edge8" class="edge">
<title>PIL_ImageOps&#45;&gt;src_CC1</title><style>.edge>path:hover{stroke-width:8}</style>
<path fill="none" stroke="black" d="M137.19,-179.51C138.44,-158.42 152.94,-139.45 166.88,-125.92"/>
<polygon fill="#c43131" stroke="black" points="168.88,-128.92 173.91,-119.6 164.16,-123.75 168.88,-128.92"/>
</g>
<!-- PIL_ImageOps&#45;&gt;src_cc1 -->
<g id="edge9" class="edge">
<title>PIL_ImageOps&#45;&gt;src_cc1</title><style>.edge>path:hover{stroke-width:8}</style>
<path fill="none" stroke="black" d="M174.05,-248.42C250.6,-242.09 398.49,-224.46 423.19,-181.51"/>
<path fill="none" stroke="black" d="M423.19,-179.51C431.22,-165.54 431.93,-147.54 430.53,-132.72"/>
<polygon fill="#c43131" stroke="black" points="433.91,-132.58 429.13,-123.12 426.97,-133.5 433.91,-132.58"/>
</g>
<!-- PIL_ImageOps&#45;&gt;src_cc1_level_imager -->
<g id="edge10" class="edge">
<title>PIL_ImageOps&#45;&gt;src_cc1_level_imager</title><style>.edge>path:hover{stroke-width:8}</style>
<path fill="none" stroke="black" d="M137.19,-179.51C138.26,-161.45 127.69,-145.02 115.37,-132.21"/>
<polygon fill="#c43131" stroke="black" points="118.2,-130.12 108.57,-125.72 113.36,-135.17 118.2,-130.12"/>
<path fill="none" stroke="black" d="M131.08,-234.31C133.28,-220.18 136.12,-199.61 137.19,-181.51"/>
</g>
<!-- bs4 -->
<g id="node4" class="node">
<title>bs4</title><style>.edge>path:hover{stroke-width:8}</style>
<ellipse fill="#85b653" stroke="black" cx="368.19" cy="-180.51" rx="27" ry="18"/>
<text text-anchor="middle" x="368.19" y="-177.01" font-family="Helvetica,sans-Serif" font-size="10.00" fill="#000000">bs4</text>
</g>
<!-- src_dat_handler -->
<g id="node14" class="node">
<title>src_dat_handler</title><style>.edge>path:hover{stroke-width:8}</style>
<ellipse fill="#70439d" stroke="black" cx="425.19" cy="-22.63" rx="46.85" ry="22.63"/>
<text text-anchor="middle" x="425.19" y="-25.13" font-family="Helvetica,sans-Serif" font-size="10.00" fill="#ffffff">src.</text>
<text text-anchor="middle" x="425.19" y="-13.13" font-family="Helvetica,sans-Serif" font-size="10.00" fill="#ffffff">dat_handler</text>
</g>
<!-- bs4&#45;&gt;src_dat_handler -->
<g id="edge11" class="edge">
<title>bs4&#45;&gt;src_dat_handler</title><style>.edge>path:hover{stroke-width:8}</style>
<path fill="none" stroke="black" d="M363.51,-162.49C360.12,-146.46 357.76,-122.34 368.19,-104.88"/>
</g>
<!-- requests -->
<g id="node5" class="node">
<title>requests</title><style>.edge>path:hover{stroke-width:8}</style>
<ellipse fill="#40bfc0" stroke="black" cx="291.19" cy="-180.51" rx="32.17" ry="18"/>
<text text-anchor="middle" x="291.19" y="-177.01" font-family="Helvetica,sans-Serif" font-size="10.00" fill="#000000">requests</text>
</g>
<!-- requests&#45;&gt;src_dat_handler -->
<g id="edge12" class="edge">
<title>requests&#45;&gt;src_dat_handler</title><style>.edge>path:hover{stroke-width:8}</style>
<path fill="none" stroke="black" d="M310.44,-165.66C327.96,-152.07 353.29,-129.81 368.19,-104.88"/>
<path fill="none" stroke="black" d="M368.19,-102.88C378.49,-85.65 391.46,-67.41 402.42,-52.77"/>
<polygon fill="#40bfc0" stroke="black" points="405.69,-55.24 408.95,-45.16 400.11,-51.01 405.69,-55.24"/>
</g>
<!-- src_cc1_cell -->
<g id="node9" class="node">
<title>src_cc1_cell</title><style>.edge>path:hover{stroke-width:8}</style>
<ellipse fill="#7a49ac" stroke="black" cx="41.19" cy="-22.63" rx="41.19" ry="18"/>
<text text-anchor="middle" x="41.19" y="-19.13" font-family="Helvetica,sans-Serif" font-size="10.00" fill="#ffffff">src.cc1_cell</text>
</g>
<!-- src_CC1&#45;&gt;src_cc1_cell -->
<g id="edge13" class="edge">
<title>src_CC1&#45;&gt;src_cc1_cell</title><style>.edge>path:hover{stroke-width:8}</style>
<path fill="none" stroke="black" d="M171.23,-90.9C165.38,-87.74 159.06,-84.35 153.19,-81.25 127.7,-67.81 98.76,-52.93 76.69,-41.66"/>
<polygon fill="#752fbc" stroke="black" points="78.57,-38.18 68.07,-36.75 75.39,-44.41 78.57,-38.18"/>
</g>
<!-- src_cc1_level -->
<g id="node10" class="node">
<title>src_cc1_level</title><style>.edge>path:hover{stroke-width:8}</style>
<ellipse fill="#7a49ac" stroke="black" cx="144.19" cy="-22.63" rx="43.45" ry="18"/>
<text text-anchor="middle" x="144.19" y="-19.13" font-family="Helvetica,sans-Serif" font-size="10.00" fill="#ffffff">src.cc1_level</text>
</g>
<!-- src_CC1&#45;&gt;src_cc1_level -->
<g id="edge14" class="edge">
<title>src_CC1&#45;&gt;src_cc1_level</title><style>.edge>path:hover{stroke-width:8}</style>
<path fill="none" stroke="black" d="M183.04,-86.46C176.49,-75.87 167.83,-61.87 160.35,-49.77"/>
<polygon fill="#752fbc" stroke="black" points="162.91,-48.24 154.67,-41.57 156.95,-51.92 162.91,-48.24"/>
</g>
<!-- src_cc1_level_transformer -->
<g id="node12" class="node">
<title>src_cc1_level_transformer</title><style>.edge>path:hover{stroke-width:8}</style>
<ellipse fill="#7a49ac" stroke="black" cx="283.19" cy="-22.63" rx="77.6" ry="22.63"/>
<text text-anchor="middle" x="283.19" y="-25.13" font-family="Helvetica,sans-Serif" font-size="10.00" fill="#ffffff">src.</text>
<text text-anchor="middle" x="283.19" y="-13.13" font-family="Helvetica,sans-Serif" font-size="10.00" fill="#ffffff">cc1_level_transformer</text>
</g>
<!-- src_CC1&#45;&gt;src_cc1_level_transformer -->
<g id="edge15" class="edge">
<title>src_CC1&#45;&gt;src_cc1_level_transformer</title><style>.edge>path:hover{stroke-width:8}</style>
<path fill="none" stroke="black" d="M209.7,-88.35C221.32,-78.11 237.25,-64.08 251.31,-51.7"/>
<polygon fill="#752fbc" stroke="black" points="253.14,-54.88 258.33,-45.64 248.51,-49.62 253.14,-54.88"/>
</g>
<!-- src_c2m_handler -->
<g id="node7" class="node">
<title>src_c2m_handler</title><style>.edge>path:hover{stroke-width:8}</style>
<ellipse fill="#7f4cb3" stroke="black" cx="540.19" cy="-22.63" rx="50.56" ry="22.63"/>
<text text-anchor="middle" x="540.19" y="-25.13" font-family="Helvetica,sans-Serif" font-size="10.00" fill="#ffffff">src.</text>
<text text-anchor="middle" x="540.19" y="-13.13" font-family="Helvetica,sans-Serif" font-size="10.00" fill="#ffffff">c2m_handler</text>
</g>
<!-- src_cc1&#45;&gt;src_dat_handler -->
<g id="edge16" class="edge">
<title>src_cc1&#45;&gt;src_dat_handler</title><style>.edge>path:hover{stroke-width:8}</style>
<path fill="none" stroke="black" d="M425.19,-85.69C425.19,-77.15 425.19,-66.55 425.19,-56.53"/>
<polygon fill="#753ab0" stroke="black" points="428.69,-56.62 425.19,-46.62 421.69,-56.62 428.69,-56.62"/>
</g>
<!-- src_cc_binary -->
<g id="node13" class="node">
<title>src_cc_binary</title><style>.edge>path:hover{stroke-width:8}</style>
<ellipse fill="#853bce" stroke="black" cx="528.19" cy="-103.88" rx="44.8" ry="18"/>
<text text-anchor="middle" x="528.19" y="-100.38" font-family="Helvetica,sans-Serif" font-size="10.00" fill="#ffffff">src.cc_binary</text>
</g>
<!-- src_cc_binary&#45;&gt;src_c2m_handler -->
<g id="edge17" class="edge">
<title>src_cc_binary&#45;&gt;src_c2m_handler</title><style>.edge>path:hover{stroke-width:8}</style>
<path fill="none" stroke="black" d="M530.8,-85.69C532.1,-77.06 533.73,-66.32 535.26,-56.21"/>
<polygon fill="#853bce" stroke="black" points="538.83,-57.03 536.86,-46.62 531.9,-55.98 538.83,-57.03"/>
</g>
<!-- src_cc_binary&#45;&gt;src_dat_handler -->
<g id="edge18" class="edge">
<title>src_cc_binary&#45;&gt;src_dat_handler</title><style>.edge>path:hover{stroke-width:8}</style>
<path fill="none" stroke="black" d="M508.33,-87.6C494,-76.57 474.32,-61.43 457.7,-48.64"/>
<polygon fill="#853bce" stroke="black" points="460.4,-45.53 450.34,-42.21 456.13,-51.08 460.4,-45.53"/>
</g>
</g>
</svg>
